<?xml version="1.0" encoding="UTF-8" standalone="no"?><!DOCTYPE svg PUBLIC "-//W3C//DTD SVG 1.1//EN" "http://www.w3.org/Graphics/SVG/1.1/DTD/svg11.dtd"><svg width="100%" height="100%" viewBox="0 0 138 855" version="1.1" xmlns="http://www.w3.org/2000/svg" xmlns:xlink="http://www.w3.org/1999/xlink" xml:space="preserve" xmlns:serif="http://www.serif.com/" style="fill-rule:evenodd;clip-rule:evenodd;stroke-linejoin:round;stroke-miterlimit:2;"><g opacity="0.41"><g><path d="M36.348,118.367l8.719,13.494l8.723,-13.494l-8.723,-13.491l-8.719,13.491Zm-4.286,-0l13.005,-20.121l13.008,20.121l-13.008,20.121l-13.005,-20.121Z" style="fill:#a743c6;"/><g><path d="M41.328,158.424l3.774,5.839l3.776,-5.839l-3.776,-5.839l-3.774,5.839Zm-2.3,0l6.074,-9.396l6.073,9.396l-6.073,9.4l-6.074,-9.4Z" style="fill:#a743c6;"/><path d="M36.339,158.554l8.72,13.495l8.722,-13.495l-8.722,-13.491l-8.72,13.491Zm-4.286,-0l13.006,-20.121l13.008,20.121l-13.008,20.121l-13.006,-20.121Z" style="fill:#a743c6;"/></g><path d="M36.329,198.762l8.72,13.495l8.722,-13.495l-8.722,-13.491l-8.72,13.491Zm-4.286,0l13.006,-20.121l13.008,20.121l-13.008,20.121l-13.006,-20.121Z" style="fill:#a743c6;"/><g><path d="M41.309,238.82l3.774,5.839l3.777,-5.839l-3.777,-5.839l-3.774,5.839Zm-2.299,-0l6.073,-9.397l6.073,9.397l-6.073,9.4l-6.073,-9.4Z" style="fill:#a743c6;"/><path d="M36.32,238.949l8.72,13.495l8.722,-13.495l-8.722,-13.49l-8.72,13.49Zm-4.285,0l13.005,-20.121l13.008,20.121l-13.008,20.121l-13.005,-20.121Z" style="fill:#a743c6;"/></g><path d="M36.327,279.113l8.719,13.495l8.723,-13.495l-8.723,-13.491l-8.719,13.491Zm-4.286,-0l13.005,-20.121l13.008,20.121l-13.008,20.121l-13.005,-20.121Z" style="fill:#a743c6;"/><g><path d="M41.307,319.267l3.774,5.839l3.776,-5.839l-3.776,-5.839l-3.774,5.839Zm-2.3,0l6.074,-9.396l6.073,9.396l-6.073,9.4l-6.074,-9.4Z" style="fill:#a743c6;"/><path d="M36.318,319.397l8.72,13.495l8.722,-13.495l-8.722,-13.491l-8.72,13.491Zm-4.286,-0l13.006,-20.121l13.008,20.121l-13.008,20.121l-13.006,-20.121Z" style="fill:#a743c6;"/></g><path d="M36.308,359.605l8.72,13.495l8.722,-13.495l-8.722,-13.491l-8.72,13.491Zm-4.285,0l13.005,-20.121l13.008,20.121l-13.008,20.121l-13.005,-20.121Z" style="fill:#a743c6;"/><g><path d="M41.288,399.663l3.774,5.839l3.777,-5.839l-3.777,-5.839l-3.774,5.839Zm-2.299,-0l6.073,-9.397l6.073,9.397l-6.073,9.4l-6.073,-9.4Z" style="fill:#a743c6;"/><path d="M36.299,399.792l8.72,13.495l8.723,-13.495l-8.723,-13.49l-8.72,13.49Zm-4.285,0l13.005,-20.121l13.008,20.121l-13.008,20.121l-13.005,-20.121Z" style="fill:#a743c6;"/></g></g><g><path d="M36.285,440.001l8.72,13.495l8.723,-13.495l-8.723,-13.491l-8.72,13.491Zm-4.285,-0l13.005,-20.121l13.008,20.121l-13.008,20.121l-13.005,-20.121Z" style="fill:#a743c6;"/><g><path d="M41.266,480.058l3.774,5.839l3.776,-5.839l-3.776,-5.838l-3.774,5.838Zm-2.3,0l6.074,-9.396l6.073,9.396l-6.073,9.401l-6.074,-9.401Z" style="fill:#a743c6;"/><path d="M36.277,480.188l8.72,13.495l8.722,-13.495l-8.722,-13.491l-8.72,13.491Zm-4.286,0l13.006,-20.121l13.007,20.121l-13.007,20.121l-13.006,-20.121Z" style="fill:#a743c6;"/></g><path d="M36.267,520.396l8.72,13.495l8.722,-13.495l-8.722,-13.49l-8.72,13.49Zm-4.286,0l13.006,-20.121l13.007,20.121l-13.007,20.121l-13.006,-20.121Z" style="fill:#a743c6;"/><g><path d="M41.247,560.454l3.774,5.839l3.776,-5.839l-3.776,-5.839l-3.774,5.839Zm-2.299,-0l6.073,-9.396l6.073,9.396l-6.073,9.4l-6.073,-9.4Z" style="fill:#a743c6;"/><path d="M36.258,560.584l8.72,13.494l8.722,-13.494l-8.722,-13.491l-8.72,13.491Zm-4.285,-0l13.005,-20.121l13.008,20.121l-13.008,20.121l-13.005,-20.121Z" style="fill:#a743c6;"/></g><path d="M36.265,600.747l8.719,13.495l8.723,-13.495l-8.723,-13.491l-8.719,13.491Zm-4.286,0l13.005,-20.121l13.008,20.121l-13.008,20.121l-13.005,-20.121Z" style="fill:#a743c6;"/><g><path d="M41.245,640.901l3.774,5.839l3.776,-5.839l-3.776,-5.838l-3.774,5.838Zm-2.3,0l6.074,-9.396l6.073,9.396l-6.073,9.401l-6.074,-9.401Z" style="fill:#a743c6;"/><path d="M36.256,641.031l8.72,13.495l8.722,-13.495l-8.722,-13.491l-8.72,13.491Zm-4.286,0l13.006,-20.121l13.008,20.121l-13.008,20.121l-13.006,-20.121Z" style="fill:#a743c6;"/></g><path d="M36.246,681.239l8.72,13.495l8.722,-13.495l-8.722,-13.49l-8.72,13.49Zm-4.286,0l13.006,-20.121l13.008,20.121l-13.008,20.121l-13.006,-20.121Z" style="fill:#a743c6;"/><g><path d="M41.226,721.297l3.774,5.839l3.777,-5.839l-3.777,-5.839l-3.774,5.839Zm-2.299,-0l6.073,-9.396l6.073,9.396l-6.073,9.4l-6.073,-9.4Z" style="fill:#a743c6;"/><path d="M36.237,721.427l8.72,13.494l8.722,-13.494l-8.722,-13.491l-8.72,13.491Zm-4.285,-0l13.005,-20.121l13.008,20.121l-13.008,20.121l-13.005,-20.121Z" style="fill:#a743c6;"/></g></g></g><g opacity="0.41"><g><path d="M76.591,120.882l8.72,13.495l8.723,-13.495l-8.723,-13.491l-8.72,13.491Zm-4.285,-0l13.005,-20.121l13.008,20.121l-13.008,20.121l-13.005,-20.121Z" style="fill:#a743c6;"/><g><path d="M81.572,160.939l3.774,5.839l3.776,-5.839l-3.776,-5.838l-3.774,5.838Zm-2.3,0l6.074,-9.396l6.073,9.396l-6.073,9.401l-6.074,-9.401Z" style="fill:#a743c6;"/><path d="M76.583,161.069l8.719,13.495l8.723,-13.495l-8.723,-13.491l-8.719,13.491Zm-4.286,0l13.005,-20.121l13.008,20.121l-13.008,20.121l-13.005,-20.121Z" style="fill:#a743c6;"/></g><path d="M76.573,201.277l8.72,13.495l8.722,-13.495l-8.722,-13.49l-8.72,13.49Zm-4.286,0l13.006,-20.121l13.007,20.121l-13.007,20.121l-13.006,-20.121Z" style="fill:#a743c6;"/><g><path d="M81.553,241.335l3.774,5.839l3.776,-5.839l-3.776,-5.839l-3.774,5.839Zm-2.299,-0l6.073,-9.396l6.073,9.396l-6.073,9.4l-6.073,-9.4Z" style="fill:#a743c6;"/><path d="M76.564,241.465l8.72,13.494l8.722,-13.494l-8.722,-13.491l-8.72,13.491Zm-4.285,-0l13.005,-20.121l13.008,20.121l-13.008,20.121l-13.005,-20.121Z" style="fill:#a743c6;"/></g><path d="M76.571,281.628l8.719,13.495l8.723,-13.495l-8.723,-13.491l-8.719,13.491Zm-4.286,0l13.005,-20.121l13.008,20.121l-13.008,20.121l-13.005,-20.121Z" style="fill:#a743c6;"/><g><path d="M81.551,321.782l3.774,5.839l3.776,-5.839l-3.776,-5.838l-3.774,5.838Zm-2.3,0l6.074,-9.396l6.073,9.396l-6.073,9.401l-6.074,-9.401Z" style="fill:#a743c6;"/><path d="M76.562,321.912l8.72,13.495l8.722,-13.495l-8.722,-13.491l-8.72,13.491Zm-4.286,0l13.006,-20.121l13.008,20.121l-13.008,20.121l-13.006,-20.121Z" style="fill:#a743c6;"/></g><path d="M76.552,362.12l8.72,13.495l8.722,-13.495l-8.722,-13.49l-8.72,13.49Zm-4.286,0l13.006,-20.121l13.008,20.121l-13.008,20.121l-13.006,-20.121Z" style="fill:#a743c6;"/><g><path d="M81.532,402.178l3.774,5.839l3.777,-5.839l-3.777,-5.839l-3.774,5.839Zm-2.299,-0l6.073,-9.396l6.073,9.396l-6.073,9.4l-6.073,-9.4Z" style="fill:#a743c6;"/><path d="M76.543,402.308l8.72,13.494l8.722,-13.494l-8.722,-13.491l-8.72,13.491Zm-4.285,-0l13.005,-20.121l13.008,20.121l-13.008,20.121l-13.005,-20.121Z" style="fill:#a743c6;"/></g></g><g><path d="M76.529,442.516l8.72,13.495l8.722,-13.495l-8.722,-13.491l-8.72,13.491Zm-4.285,0l13.005,-20.121l13.008,20.121l-13.008,20.121l-13.005,-20.121Z" style="fill:#a743c6;"/><g><path d="M81.509,482.574l3.774,5.839l3.777,-5.839l-3.777,-5.839l-3.774,5.839Zm-2.299,-0l6.073,-9.397l6.074,9.397l-6.074,9.4l-6.073,-9.4Z" style="fill:#a743c6;"/><path d="M76.521,482.703l8.719,13.495l8.723,-13.495l-8.723,-13.49l-8.719,13.49Zm-4.286,0l13.005,-20.121l13.008,20.121l-13.008,20.121l-13.005,-20.121Z" style="fill:#a743c6;"/></g><path d="M76.511,522.912l8.719,13.494l8.723,-13.494l-8.723,-13.491l-8.719,13.491Zm-4.286,-0l13.005,-20.121l13.008,20.121l-13.008,20.121l-13.005,-20.121Z" style="fill:#a743c6;"/><g><path d="M81.491,562.969l3.774,5.839l3.776,-5.839l-3.776,-5.839l-3.774,5.839Zm-2.3,0l6.074,-9.396l6.073,9.396l-6.073,9.401l-6.074,-9.401Z" style="fill:#a743c6;"/><path d="M76.502,563.099l8.72,13.495l8.722,-13.495l-8.722,-13.491l-8.72,13.491Zm-4.286,-0l13.006,-20.121l13.008,20.121l-13.008,20.121l-13.006,-20.121Z" style="fill:#a743c6;"/></g><path d="M76.508,603.262l8.72,13.495l8.723,-13.495l-8.723,-13.49l-8.72,13.49Zm-4.285,0l13.005,-20.121l13.008,20.121l-13.008,20.121l-13.005,-20.121Z" style="fill:#a743c6;"/><g><path d="M81.489,643.417l3.774,5.839l3.776,-5.839l-3.776,-5.839l-3.774,5.839Zm-2.3,-0l6.074,-9.397l6.073,9.397l-6.073,9.4l-6.074,-9.4Z" style="fill:#a743c6;"/><path d="M76.5,643.546l8.719,13.495l8.723,-13.495l-8.723,-13.49l-8.719,13.49Zm-4.286,0l13.005,-20.121l13.008,20.121l-13.008,20.121l-13.005,-20.121Z" style="fill:#a743c6;"/></g><path d="M76.49,683.755l8.72,13.494l8.722,-13.494l-8.722,-13.491l-8.72,13.491Zm-4.286,-0l13.006,-20.121l13.007,20.121l-13.007,20.121l-13.006,-20.121Z" style="fill:#a743c6;"/><g><path d="M81.47,723.812l3.774,5.839l3.776,-5.839l-3.776,-5.839l-3.774,5.839Zm-2.299,0l6.073,-9.396l6.073,9.396l-6.073,9.401l-6.073,-9.401Z" style="fill:#a743c6;"/><path d="M76.481,723.942l8.72,13.495l8.722,-13.495l-8.722,-13.491l-8.72,13.491Zm-4.285,-0l13.005,-20.121l13.008,20.121l-13.008,20.121l-13.005,-20.121Z" style="fill:#a743c6;"/></g></g></g><g opacity="0.66"><g><path d="M55.932,99.854l8.719,13.495l8.723,-13.495l-8.723,-13.491l-8.719,13.491Zm-4.286,0l13.005,-20.121l13.008,20.121l-13.008,20.121l-13.005,-20.121Z" style="fill:#a743c6;"/><g><path d="M60.912,139.912l3.774,5.838l3.776,-5.838l-3.776,-5.839l-3.774,5.839Zm-2.3,-0l6.074,-9.397l6.073,9.397l-6.073,9.4l-6.074,-9.4Z" style="fill:#a743c6;"/><path d="M55.923,140.041l8.72,13.495l8.722,-13.495l-8.722,-13.49l-8.72,13.49Zm-4.286,0l13.006,-20.121l13.008,20.121l-13.008,20.121l-13.006,-20.121Z" style="fill:#a743c6;"/></g><path d="M55.913,180.25l8.72,13.494l8.722,-13.494l-8.722,-13.491l-8.72,13.491Zm-4.286,-0l13.006,-20.121l13.008,20.121l-13.008,20.121l-13.006,-20.121Z" style="fill:#a743c6;"/><g><path d="M60.893,220.307l3.774,5.839l3.777,-5.839l-3.777,-5.839l-3.774,5.839Zm-2.299,0l6.073,-9.396l6.073,9.396l-6.073,9.4l-6.073,-9.4Z" style="fill:#a743c6;"/><path d="M55.904,220.437l8.72,13.495l8.722,-13.495l-8.722,-13.491l-8.72,13.491Zm-4.285,-0l13.005,-20.121l13.008,20.121l-13.008,20.121l-13.005,-20.121Z" style="fill:#a743c6;"/></g><path d="M55.911,260.6l8.719,13.495l8.723,-13.495l-8.723,-13.49l-8.719,13.49Zm-4.286,0l13.005,-20.121l13.008,20.121l-13.008,20.121l-13.005,-20.121Z" style="fill:#a743c6;"/><g><path d="M60.891,300.755l3.774,5.839l3.776,-5.839l-3.776,-5.839l-3.774,5.839Zm-2.299,-0l6.073,-9.397l6.073,9.397l-6.073,9.4l-6.073,-9.4Z" style="fill:#a743c6;"/><path d="M55.902,300.884l8.72,13.495l8.722,-13.495l-8.722,-13.49l-8.72,13.49Zm-4.286,0l13.006,-20.121l13.008,20.121l-13.008,20.121l-13.006,-20.121Z" style="fill:#a743c6;"/></g><path d="M55.892,341.093l8.72,13.494l8.722,-13.494l-8.722,-13.491l-8.72,13.491Zm-4.285,-0l13.005,-20.121l13.008,20.121l-13.008,20.121l-13.005,-20.121Z" style="fill:#a743c6;"/><g><path d="M60.872,381.15l3.774,5.839l3.777,-5.839l-3.777,-5.839l-3.774,5.839Zm-2.299,0l6.073,-9.396l6.074,9.396l-6.074,9.401l-6.073,-9.401Z" style="fill:#a743c6;"/><path d="M55.883,381.28l8.72,13.495l8.723,-13.495l-8.723,-13.491l-8.72,13.491Zm-4.285,-0l13.005,-20.121l13.008,20.121l-13.008,20.121l-13.005,-20.121Z" style="fill:#a743c6;"/></g></g><g><path d="M55.869,421.488l8.72,13.495l8.723,-13.495l-8.723,-13.49l-8.72,13.49Zm-4.285,0l13.005,-20.121l13.008,20.121l-13.008,20.121l-13.005,-20.121Z" style="fill:#a743c6;"/><g><path d="M60.85,461.546l3.774,5.839l3.776,-5.839l-3.776,-5.839l-3.774,5.839Zm-2.3,-0l6.074,-9.396l6.073,9.396l-6.073,9.4l-6.074,-9.4Z" style="fill:#a743c6;"/><path d="M55.861,461.676l8.72,13.494l8.722,-13.494l-8.722,-13.491l-8.72,13.491Zm-4.286,-0l13.006,-20.121l13.007,20.121l-13.007,20.121l-13.006,-20.121Z" style="fill:#a743c6;"/></g><path d="M55.851,501.884l8.72,13.495l8.722,-13.495l-8.722,-13.491l-8.72,13.491Zm-4.286,-0l13.006,-20.121l13.007,20.121l-13.007,20.121l-13.006,-20.121Z" style="fill:#a743c6;"/><g><path d="M60.831,541.941l3.774,5.839l3.777,-5.839l-3.777,-5.838l-3.774,5.838Zm-2.299,0l6.073,-9.396l6.073,9.396l-6.073,9.401l-6.073,-9.401Z" style="fill:#a743c6;"/><path d="M55.842,542.071l8.72,13.495l8.722,-13.495l-8.722,-13.491l-8.72,13.491Zm-4.285,0l13.005,-20.121l13.008,20.121l-13.008,20.121l-13.005,-20.121Z" style="fill:#a743c6;"/></g><path d="M55.849,582.235l8.719,13.494l8.723,-13.494l-8.723,-13.491l-8.719,13.491Zm-4.286,-0l13.005,-20.121l13.008,20.121l-13.008,20.121l-13.005,-20.121Z" style="fill:#a743c6;"/><g><path d="M60.829,622.389l3.774,5.839l3.776,-5.839l-3.776,-5.839l-3.774,5.839Zm-2.3,-0l6.074,-9.396l6.073,9.396l-6.073,9.4l-6.074,-9.4Z" style="fill:#a743c6;"/><path d="M55.84,622.519l8.72,13.494l8.722,-13.494l-8.722,-13.491l-8.72,13.491Zm-4.286,-0l13.006,-20.121l13.008,20.121l-13.008,20.121l-13.006,-20.121Z" style="fill:#a743c6;"/></g><path d="M55.83,662.727l8.72,13.495l8.722,-13.495l-8.722,-13.491l-8.72,13.491Zm-4.286,-0l13.006,-20.121l13.008,20.121l-13.008,20.121l-13.006,-20.121Z" style="fill:#a743c6;"/><g><path d="M60.81,702.784l3.774,5.839l3.777,-5.839l-3.777,-5.838l-3.774,5.838Zm-2.299,0l6.073,-9.396l6.073,9.396l-6.073,9.401l-6.073,-9.401Z" style="fill:#a743c6;"/><path d="M55.821,702.914l8.72,13.495l8.722,-13.495l-8.722,-13.491l-8.72,13.491Zm-4.285,0l13.005,-20.121l13.008,20.121l-13.008,20.121l-13.005,-20.121Z" style="fill:#a743c6;"/></g></g></g></svg>