<?xml version="1.0" encoding="UTF-8" standalone="no"?><!DOCTYPE svg PUBLIC "-//W3C//DTD SVG 1.1//EN" "http://www.w3.org/Graphics/SVG/1.1/DTD/svg11.dtd"><svg width="100%" height="100%" viewBox="0 0 480 480" version="1.1" xmlns="http://www.w3.org/2000/svg" xmlns:xlink="http://www.w3.org/1999/xlink" xml:space="preserve" xmlns:serif="http://www.serif.com/" style="fill-rule:evenodd;clip-rule:evenodd;stroke-linejoin:round;stroke-miterlimit:2;"><g><g><path d="M160,0c-66.274,0 -120,53.726 -120,120l0,88c0.035,30.913 25.087,55.965 56,56l8,0l0,-16l-8,0c-22.08,-0.026 -39.974,-17.92 -40,-40l0,-88c0,-57.438 46.562,-104 104,-104c57.438,0 104,46.562 104,104l0,88c-0.026,22.08 -17.92,39.974 -40,40l-8,0l0,16l8,0c30.913,-0.035 55.965,-25.087 56,-56l0,-88c0,-66.274 -53.726,-120 -120,-120Z" style="fill:#840025;fill-rule:nonzero;"/></g></g><g><g><path d="M65.928,377.032l5.848,-9.208l-13.512,-8.576l-5.848,9.216c-17.687,27.872 -16.374,63.76 3.304,90.264l0,21.272l16,0l0,-24c0.001,-1.817 -0.617,-3.581 -1.752,-5c-17.008,-21.262 -18.631,-50.98 -4.04,-73.968Z" style="fill:#840025;fill-rule:nonzero;"/></g></g><g><g><path d="M440,0l-104,0c-22.08,0.026 -39.974,17.92 -40,40l0,80c0.026,22.08 17.92,39.974 40,40l16,0l0,32c-0.001,3.235 1.947,6.153 4.936,7.392c0.971,0.405 2.012,0.611 3.064,0.608c2.122,0 4.156,-0.844 5.656,-2.344l37.656,-37.656l36.688,0c22.08,-0.026 39.974,-17.92 40,-40l0,-80c-0.026,-22.08 -17.92,-39.974 -40,-40Zm24,120c0,13.255 -10.745,24 -24,24l-40,0c-2.122,0 -4.156,0.844 -5.656,2.344l-26.344,26.344l0,-20.688c0,-4.418 -3.582,-8 -8,-8l-24,0c-13.255,0 -24,-10.745 -24,-24l0,-80c0,-13.255 10.745,-24 24,-24l104,0c13.255,0 24,10.745 24,24l0,80Z" style="fill:#840025;fill-rule:nonzero;"/></g></g><g><g><rect x="336" y="40" width="56" height="16" style="fill:#840025;"/></g></g><g><g><rect x="408" y="40" width="32" height="16" style="fill:#840025;"/></g></g><g><g><rect x="336" y="72" width="104" height="16" style="fill:#840025;"/></g></g><g><g><rect x="336" y="104" width="56" height="16" style="fill:#840025;"/></g></g><g><g><path d="M267.584,368.464l-5.848,-9.216l-13.512,8.576l5.848,9.216c14.592,22.985 12.969,52.701 -4.04,73.96c-1.135,1.419 -1.753,3.183 -1.752,5l0,24l16,0l0,-21.272c19.678,-26.504 20.991,-62.392 3.304,-90.264Z" style="fill:#840025;fill-rule:nonzero;"/></g></g><g><g><path d="M472,272l-72,0c-30.016,0.035 -54.666,23.729 -55.888,53.72l-24.112,43.408l0,-33.128c-0.035,-30.913 -25.087,-55.965 -56,-56l-29.24,-0l-0.216,-0.168l-0.144,0.168l-18.4,-0c-8.837,-0 -16,-7.163 -16,-16l0,-18.824c24.719,-14.272 39.962,-40.633 40,-69.176l0,-64c-0.012,-13.255 -3.31,-26.3 -9.6,-37.968c-2.015,-3.712 -6.569,-5.219 -10.4,-3.44l-135.408,63.712c-2.804,1.32 -4.593,4.141 -4.592,7.24l0,34.456c0.038,28.543 15.281,54.904 40,69.176l0,18.824c0,8.837 -7.163,16 -16,16l-48,-0c-30.913,0.035 -55.965,25.087 -56,56l0,144l16,-0l0,-144c0.026,-22.08 17.92,-39.974 40,-40l25.456,-0l72.04,100.656c1.48,2.069 3.856,3.31 6.4,3.344l0.104,-0c2.518,-0 4.889,-1.186 6.4,-3.2l76,-100.8l21.6,-0c22.08,0.026 39.974,17.92 40,40l0,64c0.004,4.418 3.589,7.997 8.007,7.993c2.902,-0.003 5.575,-1.576 6.985,-4.113l37.712,-67.88l45.864,-0l-78,144l18.2,-0l78.032,-144l3.2,-0c30.913,-0.035 55.965,-25.087 56,-56c0,-4.418 -3.582,-8 -8,-8Zm-376,-96l0,-29.376l123.528,-58.128c2.955,7.484 4.472,15.458 4.472,23.504l0,64c0,35.346 -28.654,64 -64,64c-35.346,-0 -64,-28.654 -64,-64Zm64.168,202.496l-24.688,-34.496l50.688,-0l-26,34.496Zm38.104,-50.496l-74.272,-0l-22.904,-32l2.904,-0c17.673,-0 32,-14.327 32,-32l0,-11.688c15.622,4.917 32.378,4.917 48,-0l0,11.688c0,17.673 14.327,32 32,32l6.4,-0l-24.128,32Zm225.728,-8l-63.2,-0c3.825,-18.613 20.198,-31.979 39.2,-32l63.2,-0c-3.825,18.613 -20.198,31.979 -39.2,32Z" style="fill:#840025;fill-rule:nonzero;"/></g></g></svg>