<?xml version="1.0" encoding="UTF-8" standalone="no"?><!DOCTYPE svg PUBLIC "-//W3C//DTD SVG 1.1//EN" "http://www.w3.org/Graphics/SVG/1.1/DTD/svg11.dtd"><svg width="100%" height="100%" viewBox="0 0 76 76" version="1.1" xmlns="http://www.w3.org/2000/svg" xmlns:xlink="http://www.w3.org/1999/xlink" xml:space="preserve" xmlns:serif="http://www.serif.com/" style="fill-rule:evenodd;clip-rule:evenodd;stroke-linecap:round;stroke-linejoin:round;stroke-miterlimit:1.5;"><g id="Fondo"><circle cx="37.3" cy="37.484" r="37.386" style="fill:#d0b08f;fill-opacity:0.15;"/></g><g id="Capa1"><path d="M26.993,11.716l-7.207,7.643" style="fill:none;stroke:#961111;stroke-width:1.46px;"/><path d="M16.947,21.652l-4.04,1.966" style="fill:none;stroke:#961111;stroke-width:1.46px;"/><path d="M9.631,25.802l-3.385,7.643" style="fill:none;stroke:#961111;stroke-width:1.46px;"/><path d="M5.81,36.83l1.856,4.914" style="fill:none;stroke:#961111;stroke-width:1.46px;"/><path d="M10.614,43.709l15.287,0.546" style="fill:none;stroke:#961111;stroke-width:1.46px;"/><path d="M28.085,41.525l7.862,-6.333" style="fill:none;stroke:#961111;stroke-width:1.46px;"/><path d="M39.113,34.865l4.696,2.293" style="fill:none;stroke:#961111;stroke-width:1.46px;"/><path d="M45.665,39.778l8.299,4.914" style="fill:none;stroke:#961111;stroke-width:1.46px;"/><path d="M58.113,44.692l4.805,-0.764" style="fill:none;stroke:#961111;stroke-width:1.46px;"/><path d="M65.866,41.962l2.074,-4.367" style="fill:none;stroke:#961111;stroke-width:1.46px;"/><path d="M68.486,33.664l-3.712,-7.644" style="fill:none;stroke:#961111;stroke-width:1.46px;"/><path d="M62.372,23.181l-6.552,-3.931" style="fill:none;stroke:#961111;stroke-width:1.46px;"/><path d="M52.981,16.193l-5.35,-4.805" style="fill:none;stroke:#961111;stroke-width:1.46px;"/><path d="M44.027,10.296l-5.023,-0.764" style="fill:none;stroke:#961111;stroke-width:1.46px;"/><path d="M35.073,9.095l-4.804,1.201" style="fill:none;stroke:#961111;stroke-width:1.46px;"/><path d="M30.05,12.152l7.098,4.259" style="fill:none;stroke:#961111;stroke-width:1.46px;"/><path d="M28.413,12.917l1.856,10.264" style="fill:none;stroke:#961111;stroke-width:1.46px;"/><path d="M20.551,21.761l7.425,2.621" style="fill:none;stroke:#961111;stroke-width:1.46px;"/><path d="M12.689,26.02l3.603,6.006" style="fill:none;stroke:#961111;stroke-width:1.46px;"/><path d="M6.574,34.865l9.281,-0.983" style="fill:none;stroke:#961111;stroke-width:1.46px;"/><path d="M19.786,21.98l7.316,18.563" style="fill:none;stroke:#961111;stroke-width:1.46px;"/><path d="M10.177,41.525l6.224,-6.988" style="fill:none;stroke:#961111;stroke-width:1.46px;"/><path d="M20.005,34.537l6.115,6.988" style="fill:none;stroke:#961111;stroke-width:1.46px;"/><path d="M17.712,34.974l0.546,8.735" style="fill:none;stroke:#961111;stroke-width:1.46px;"/><path d="M30.815,26.894l5.132,5.35" style="fill:none;stroke:#961111;stroke-width:1.46px;"/><path d="M39.332,20.56l-2.402,10.483" style="fill:none;stroke:#961111;stroke-width:1.46px;"/><path d="M40.533,19.25l4.259,1.856" style="fill:none;stroke:#961111;stroke-width:1.46px;"/><path d="M46.757,12.371l0.437,7.643" style="fill:none;stroke:#961111;stroke-width:1.46px;"/><path d="M45.993,24.491l-6.88,7.316" style="fill:none;stroke:#961111;stroke-width:1.46px;"/><path d="M48.177,23.836l5.022,3.822" style="fill:none;stroke:#961111;stroke-width:1.46px;"/><path d="M48.941,21.543l13.321,2.293" style="fill:none;stroke:#961111;stroke-width:1.46px;"/><path d="M47.085,36.175l6.224,-5.787" style="fill:none;stroke:#961111;stroke-width:1.46px;"/><path d="M56.694,28.204l5.459,-3.385" style="fill:none;stroke:#961111;stroke-width:1.46px;"/><path d="M63.464,25.911l-4.914,8.626" style="fill:none;stroke:#961111;stroke-width:1.46px;"/><path d="M47.521,37.158l8.081,-0.328" style="fill:none;stroke:#961111;stroke-width:1.46px;"/><path d="M60.406,36.175l6.333,-0.546" style="fill:none;stroke:#961111;stroke-width:1.46px;"/><path d="M59.533,37.485l3.385,4.477" style="fill:none;stroke:#961111;stroke-width:1.46px;"/><path d="M57.458,38.25l-0.983,3.712" style="fill:none;stroke:#961111;stroke-width:1.46px;"/><circle cx="28.576" cy="11.006" r="1.583" style="fill:none;stroke:#961111;stroke-width:1.46px;"/><path d="M30.924,44.692l-0.328,10.701l-13.649,-4.04" style="fill:none;stroke:#961111;stroke-width:1.46px;"/><path d="M43.481,44.801l0.109,10.592l13.65,-3.822" style="fill:none;stroke:#961111;stroke-width:1.46px;"/><path d="M13.126,56.922l24.131,8.626" style="fill:none;stroke:#961111;stroke-width:1.46px;"/><path d="M62.262,57.031l-25.005,8.517" style="fill:none;stroke:#961111;stroke-width:1.46px;"/><circle cx="45.938" cy="10.351" r="1.583" style="fill:none;stroke:#961111;stroke-width:1.46px;"/><circle cx="64.283" cy="24.109" r="1.583" style="fill:none;stroke:#961111;stroke-width:1.46px;"/><circle cx="11.324" cy="24.328" r="1.583" style="fill:none;stroke:#961111;stroke-width:1.46px;"/><circle cx="9.14" cy="43.218" r="1.583" style="fill:none;stroke:#961111;stroke-width:1.46px;"/><circle cx="27.703" cy="43.436" r="1.583" style="fill:none;stroke:#961111;stroke-width:1.46px;"/><circle cx="30.323" cy="25.31" r="1.583" style="fill:none;stroke:#961111;stroke-width:1.46px;"/><circle cx="18.203" cy="33.391" r="1.583" style="fill:none;stroke:#961111;stroke-width:1.46px;"/><circle cx="47.03" cy="22.362" r="1.583" style="fill:none;stroke:#961111;stroke-width:1.46px;"/><circle cx="37.421" cy="33.827" r="1.583" style="fill:none;stroke:#961111;stroke-width:1.46px;"/><circle cx="45.72" cy="37.758" r="1.583" style="fill:none;stroke:#961111;stroke-width:1.46px;"/><circle cx="55.329" cy="29.241" r="1.583" style="fill:none;stroke:#961111;stroke-width:1.46px;"/><circle cx="54.455" cy="17.667" r="1.583" style="fill:none;stroke:#961111;stroke-width:1.46px;"/><circle cx="18.858" cy="20.506" r="1.583" style="fill:none;stroke:#961111;stroke-width:1.46px;"/><circle cx="4.991" cy="35.028" r="1.583" style="fill:none;stroke:#961111;stroke-width:1.46px;"/><circle cx="55.875" cy="44.637" r="1.583" style="fill:none;stroke:#961111;stroke-width:1.46px;"/><circle cx="68.978" cy="35.684" r="1.583" style="fill:none;stroke:#961111;stroke-width:1.46px;"/><circle cx="64.938" cy="43.327" r="1.583" style="fill:none;stroke:#961111;stroke-width:1.46px;"/><circle cx="58.168" cy="36.339" r="1.583" style="fill:none;stroke:#961111;stroke-width:1.46px;"/><circle cx="38.95" cy="17.885" r="1.583" style="fill:none;stroke:#961111;stroke-width:1.46px;"/><circle cx="37.203" cy="9.15" r="1.583" style="fill:none;stroke:#961111;stroke-width:1.46px;"/></g></svg>