<?xml version="1.0" encoding="UTF-8" standalone="no"?><!DOCTYPE svg PUBLIC "-//W3C//DTD SVG 1.1//EN" "http://www.w3.org/Graphics/SVG/1.1/DTD/svg11.dtd"><svg width="100%" height="100%" viewBox="0 0 76 76" version="1.1" xmlns="http://www.w3.org/2000/svg" xmlns:xlink="http://www.w3.org/1999/xlink" xml:space="preserve" xmlns:serif="http://www.serif.com/" style="fill-rule:evenodd;clip-rule:evenodd;stroke-linecap:round;stroke-linejoin:round;stroke-miterlimit:1.5;"><g id="Fondo"><circle cx="37.3" cy="37.484" r="37.386" style="fill:#d0b08f;fill-opacity:0.15;"/></g><g id="atlas"><g id="hombre"><circle cx="59.223" cy="32.613" r="2.602" style="fill:none;stroke:#840025;stroke-width:2px;"/><path d="M54.802,46.786l0.101,-9.298l8.387,-0.404l0.607,8.994" style="fill:none;stroke:#840025;stroke-width:2px;"/><path d="M57.101,37.383l-0.076,9.908l4.85,0.101l0.304,-10.308" style="fill:none;stroke:#840025;stroke-width:2px;"/><path d="M57.025,47.291l0.202,9.701" style="fill:none;stroke:#840025;stroke-width:2px;"/><path d="M61.977,47.392l-0.506,9.297" style="fill:none;stroke:#840025;stroke-width:2px;"/></g><g id="Capa1"><path d="M13.741,57.958l8.63,-13.337l10.69,4.413l22.85,-29.42" style="fill:none;stroke:#840025;stroke-width:2px;"/><path d="M12.172,47.269l15.397,5.786l8.042,-27.165l8.237,16.672" style="fill:none;stroke:#840025;stroke-width:2px;"/></g><g id="mujer"><path d="M20.272,32.163l-0,7.392" style="fill:none;stroke:#840025;stroke-width:2px;"/><path d="M23.968,32.058l-0.106,7.075" style="fill:none;stroke:#840025;stroke-width:2px;"/><circle cx="21.671" cy="13.709" r="2.772" style="fill:none;stroke:#840025;stroke-width:2px;"/><path d="M15.942,28.045l2.006,-9.399l8.132,0.106l1.584,8.87" style="fill:none;stroke:#840025;stroke-width:2px;"/><path d="M17.948,18.646l1.373,5.914l-2.112,7.392l9.399,0l-1.796,-6.653l1.056,-6.547" style="fill:none;stroke:#840025;stroke-width:2px;"/></g></g></svg>