<?xml version="1.0" encoding="UTF-8" standalone="no"?><!DOCTYPE svg PUBLIC "-//W3C//DTD SVG 1.1//EN" "http://www.w3.org/Graphics/SVG/1.1/DTD/svg11.dtd"><svg width="100%" height="100%" viewBox="0 0 512 512" version="1.1" xmlns="http://www.w3.org/2000/svg" xmlns:xlink="http://www.w3.org/1999/xlink" xml:space="preserve" xmlns:serif="http://www.serif.com/" style="fill-rule:evenodd;clip-rule:evenodd;stroke-linejoin:round;stroke-miterlimit:2;"><g><g><path d="M262.809,494.93c-1.859,-1.86 -4.439,-2.93 -7.069,-2.93c-2.631,0 -5.211,1.07 -7.07,2.93c-1.86,1.86 -2.93,4.44 -2.93,7.07c0,2.63 1.069,5.21 2.93,7.07c1.859,1.86 4.439,2.93 7.07,2.93c2.63,0 5.21,-1.07 7.069,-2.93c1.86,-1.86 2.931,-4.44 2.931,-7.07c0,-2.63 -1.07,-5.21 -2.931,-7.07Z" style="fill:#840025;fill-rule:nonzero;"/></g></g><g><g><path d="M458.56,327.071l-33.358,-7.969l0,-13.232c18.516,-11.703 30.848,-32.342 30.848,-55.818l0,-37.267c0,-36.393 -29.608,-66 -66.002,-66c-19.632,0 -37.279,8.626 -49.38,22.275c-10.598,-36.703 -44.495,-63.623 -84.564,-63.623l-0.001,0c-40.134,0 -74.077,27.005 -84.616,63.798c-12.104,-13.75 -29.816,-22.45 -49.532,-22.45c-36.394,0 -66.002,29.608 -66.002,66l0,37.267c0,23.477 12.332,44.116 30.848,55.818l0,13.232l-33.358,7.969c-31.467,7.516 -53.443,35.359 -53.443,67.708l-0,67.221c-0,5.523 4.478,10 10,10l79.963,0l-0,30c-0,5.523 4.478,10 10,10l109.704,0c5.522,0 10,-4.477 10,-10c-0,-5.523 -4.478,-10 -10,-10l-44.643,0l-0,-44.012c-0,-5.523 -4.478,-10 -10,-10c-5.522,0 -10,4.477 -10,10l-0,44.012l-35.062,0l-0,-45.118c-0,-33.914 23.034,-63.119 56.015,-71.022l49.183,-11.786l31.646,71.996c1.596,3.631 5.187,5.976 9.153,5.976l0.001,0c3.966,0 7.558,-2.344 9.154,-5.975l31.614,-71.891l49.04,11.715c33.011,7.885 56.065,37.096 56.065,71.034l-0,11.159c-0.511,1.202 -0.795,2.523 -0.795,3.911c-0,1.388 0.284,2.71 0.795,3.911l-0,26.09l-34.857,0l0,-44.012c0,-5.523 -4.478,-10 -10,-10c-5.522,0 -10,4.477 -10,10l0,44.012l-48.975,0c-5.522,0 -10,4.477 -10,10c0,5.523 4.478,10 10,10l113.832,0c5.522,0 10,-4.477 10,-10l0,-30l80.167,0c5.522,0 10,-4.477 10,-10l0,-67.221c0,-32.349 -21.976,-60.192 -53.44,-67.708Zm-68.513,-160.286c25.365,0 46.002,20.636 46.002,46l0,3.481l-28.603,0c-21.606,0 -42.837,-5.673 -61.548,-16.426c5.606,-19.082 23.276,-33.055 44.149,-33.055Zm-46.002,81.635c0.035,-1.021 0.06,-26.888 0.06,-26.888c19.659,9.668 41.332,14.735 63.342,14.735l28.603,0l0,13.786c-0.001,25.364 -20.638,45.999 -46.003,45.999c-25.365,0 -46.002,-20.636 -46.002,-46l0,-1.632Zm-155.945,-54.982c-0,-37.496 30.506,-68 68.003,-68c37.496,0 68.002,30.505 68.002,68l0,1.304l-37.115,-21.805c-4.211,-2.475 -9.593,-1.544 -12.73,2.199c-14.42,17.208 -35.568,27.078 -58.021,27.078l-28.139,0l0,-8.776Zm-112.149,22.829l0,-3.482c0,-25.365 20.637,-46 46.002,-46c20.873,0 38.543,13.973 44.148,33.056c-18.711,10.752 -39.941,16.426 -61.548,16.426l-28.602,0Zm0,33.785l0,-13.786l28.603,0c22.032,0 43.727,-5.076 63.401,-14.763l0,28.549c0,25.365 -20.637,46 -46.002,46c-25.365,0 -46.002,-20.636 -46.002,-46Zm14.012,196.83l0,5.118l-29.963,0l0,-44.429c0,-5.523 -4.478,-10 -10,-10c-5.522,0 -10,4.477 -10,10l0,44.429l-20,0l0,-57.221c0,-23.055 15.662,-42.898 38.087,-48.255l31.698,-7.573l20.688,49.555c-12.939,16.074 -20.51,36.448 -20.51,58.376Zm31.992,-82.788l-15.187,-36.379c0.017,-0.239 0.031,-0.478 0.031,-0.72l0,-12.718c4.869,1.148 9.939,1.775 15.154,1.775c5.192,0 10.238,-0.622 15.088,-1.76l0,12.07c-0.011,0.188 -0.016,0.376 -0.016,0.564c0,0.315 0.03,0.628 0.06,0.941l-15.13,36.227Zm39.362,-7.683c-5.905,1.415 -11.548,3.384 -16.906,5.812l9.74,-23.322l31.703,7.597c2.459,0.589 4.855,1.368 7.174,2.314l-31.711,7.599Zm49.636,-20.843c-6.278,-3.894 -13.166,-6.777 -20.438,-8.519l-33.474,-8.021l0,-13.115c8.325,-5.247 15.396,-12.299 20.667,-20.607c7.539,14.729 19.11,27.063 33.245,35.547l0,14.715Zm69.98,14.845l-24.971,56.786l-25.009,-56.897l0,-20.624c7.972,2.382 16.413,3.667 25.149,3.667c8.62,0 16.953,-1.252 24.831,-3.573l0,20.641Zm-24.83,-37.067c-37.498,-0.001 -68.003,-30.506 -68.003,-68.001l0,-23.13l28.138,0c25.524,0 49.715,-10.088 67.587,-27.941l40.221,23.629l0,29.789c-1.244,36.411 -31.233,65.654 -67.943,65.654Zm44.83,7.695l0.001,0c14.222,-8.455 25.874,-20.798 33.471,-35.559c5.26,8.231 12.289,15.22 20.554,20.431l-0,13.115l-33.474,8.021c-7.316,1.753 -14.243,4.662 -20.552,8.592l-0,-14.6Zm49.481,35.403l-31.625,-7.556c2.376,-0.98 4.833,-1.785 7.357,-2.39l31.626,-7.578l9.78,23.426c-5.427,-2.472 -11.148,-4.471 -17.138,-5.902Zm24.48,-28.428c0.04,-0.363 0.069,-0.728 0.069,-1.094c-0,-0.093 -0.001,-0.187 -0.004,-0.28l-0,-12.35c4.85,1.139 9.896,1.76 15.088,1.76c5.215,0 10.285,-0.627 15.154,-1.776l-0,12.718c-0,0.182 0.013,0.361 0.023,0.541l-15.268,36.559l-15.062,-36.078Zm117.106,123.984l-20,0l-0,-44.429c-0,-5.523 -4.478,-10 -10,-10c-5.522,0 -10,4.477 -10,10l-0,44.429l-30.167,0l-0,-5.07c-0,-21.899 -7.546,-42.245 -20.448,-58.305l20.753,-49.692l31.775,7.591c22.425,5.357 38.087,25.2 38.087,48.255l-0,57.221Z" style="fill:#840025;fill-rule:nonzero;"/></g></g><g><g><path d="M229.529,234.18c-1.859,-1.86 -4.439,-2.93 -7.069,-2.93c-2.63,0 -5.21,1.07 -7.07,2.93c-1.86,1.86 -2.93,4.44 -2.93,7.07c0,2.63 1.069,5.21 2.93,7.07c1.861,1.86 4.44,2.93 7.07,2.93c2.64,0 5.21,-1.07 7.069,-2.93c1.87,-1.86 2.931,-4.44 2.931,-7.07c0,-2.63 -1.061,-5.21 -2.931,-7.07Z" style="fill:#840025;fill-rule:nonzero;"/></g></g><g><g><path d="M296.399,234.18c-1.859,-1.86 -4.439,-2.93 -7.069,-2.93c-2.63,0 -5.21,1.07 -7.07,2.93c-1.86,1.86 -2.93,4.44 -2.93,7.07c0,2.63 1.069,5.21 2.93,7.07c1.861,1.86 4.44,2.93 7.07,2.93c2.63,0 5.21,-1.07 7.069,-2.93c1.87,-1.86 2.931,-4.44 2.931,-7.07c0,-2.63 -1.061,-5.21 -2.931,-7.07Z" style="fill:#840025;fill-rule:nonzero;"/></g></g><g><g><path d="M275.247,267.842c-3.906,-3.905 -10.236,-3.905 -14.143,0c-2.957,2.957 -7.768,2.957 -10.725,0c-3.906,-3.905 -10.236,-3.905 -14.143,0c-3.905,3.905 -3.905,10.237 0,14.143c5.378,5.377 12.441,8.066 19.505,8.066c7.064,0 14.127,-2.688 19.505,-8.066c3.906,-3.906 3.906,-10.238 0.001,-14.143Z" style="fill:#840025;fill-rule:nonzero;"/></g></g></svg>