<?xml version="1.0" encoding="UTF-8" standalone="no"?><!DOCTYPE svg PUBLIC "-//W3C//DTD SVG 1.1//EN" "http://www.w3.org/Graphics/SVG/1.1/DTD/svg11.dtd"><svg width="100%" height="100%" viewBox="0 0 8267 7330" version="1.1" xmlns="http://www.w3.org/2000/svg" xmlns:xlink="http://www.w3.org/1999/xlink" xml:space="preserve" xmlns:serif="http://www.serif.com/" style="fill-rule:evenodd;clip-rule:evenodd;stroke-linejoin:round;stroke-miterlimit:22.926;"><g id="Capa-1" serif:id="Capa 1"><path d="M7441.15,6019.8l148.627,-0l-73.82,-188.397l-74.807,188.397Zm-294.427,261.297l282.135,-667.474l177.024,-0l282.135,667.474l-196.942,-0l-48.25,-118.323l-255.643,-0l-47.33,118.323l-193.129,-0Zm-414,-162.826l-0,-337.024l74.806,0c109.778,0 182.678,61.528 182.678,167.559l0,1.906c0,106.951 -72.9,167.559 -182.678,167.559l-74.806,0Zm-183.664,162.826l251.831,-0c238.553,-0 377.714,-141.988 377.714,-333.211l0,-1.907c0,-191.289 -137.255,-327.623 -373.967,-327.623l-255.578,-0l-0,662.741Zm-485.06,-261.297l148.693,-0l-73.886,-188.397l-74.807,188.397Zm-294.427,261.297l282.135,-667.474l177.025,-0l282.135,667.474l-196.943,-0l-48.249,-118.323l-255.644,-0l-47.329,118.323l-193.13,-0Zm-405.454,-344.584l-0,-159.079l120.229,0c61.528,0 99.392,26.492 99.392,78.554l-0,1.906c-0,48.316 -35.957,78.619 -98.472,78.619l-121.149,0Zm-183.664,344.584l183.664,-0l-0,-200.689l80.459,-0l133.508,200.689l212.062,-0l-158.093,-230.993c82.366,-35.037 136.335,-102.218 136.335,-203.582l-0,-1.84c-0,-65.341 -19.918,-116.483 -58.702,-154.347c-44.503,-45.423 -114.576,-71.979 -215.874,-71.979l-313.359,-0l-0,662.741Zm-470.861,-344.584l0,-159.079l120.23,0c61.593,0 99.457,26.492 99.457,78.554l-0,1.906c-0,48.316 -35.957,78.619 -98.471,78.619l-121.216,0Zm-183.664,344.584l183.664,-0l0,-200.689l80.526,-0l133.442,200.689l212.061,-0l-158.093,-230.993c82.367,-35.037 136.335,-102.218 136.335,-203.582l0,-1.84c0,-65.341 -19.852,-116.483 -58.701,-154.347c-44.503,-45.423 -114.511,-71.979 -215.809,-71.979l-313.425,-0l0,662.741Zm-484.993,-261.297l74.806,-188.397l73.821,188.397l-148.627,-0Zm-294.428,261.297l193.13,-0l47.329,-118.323l255.644,-0l48.249,118.323l196.943,-0l-282.135,-667.474l-177.025,-0l-282.135,667.474Zm-418.733,-147.707l0,-122.136l140.082,0c61.528,0 89.925,23.665 89.925,59.688l0,1.906c0,38.784 -32.144,60.542 -88.019,60.542l-141.988,0Zm0,-250.845l0,-116.483l119.244,0c54.954,0 83.352,20.838 83.352,56.795l-0,1.907c-0,38.849 -31.29,57.781 -87.099,57.781l-115.497,-0Zm-178.996,398.552l341.822,-0c158.093,-0 250.845,-69.088 250.845,-182.744l0,-1.84c0,-89.926 -51.076,-135.415 -131.536,-161.906c58.636,-25.571 102.218,-70.994 102.218,-147.707l0,-1.906c0,-45.423 -16.105,-80.46 -42.596,-106.951c-38.849,-38.849 -97.551,-59.687 -180.837,-59.687l-339.916,-0l-0,662.741Zm-556.908,-0l504.582,-0l0,-160.92l-320.918,0l-0,-501.821l-183.664,-0l-0,662.741Zm-485.06,-261.297l74.807,-188.397l73.82,188.397l-148.627,-0Zm-294.427,261.297l193.129,-0l47.33,-118.323l255.644,-0l48.249,118.323l196.943,-0l-282.136,-667.474l-177.024,-0l-282.135,667.474Zm-720.457,-261.297l148.627,-0l-73.821,-188.397l-74.806,188.397Zm-294.428,261.297l282.135,-667.474l177.025,-0l282.135,667.474l-196.942,-0l-48.25,-118.323l-255.644,-0l-47.329,118.323l-193.13,-0Zm-503.991,-0l504.649,-0l-0,-160.92l-320.919,0l-0,-501.821l-183.73,-0l0,662.741Z" style="fill:#510b1e;"/><path d="M4828.91,6936.62l108.529,0l-0,-216.992l168.939,216.992l96.039,0l-0,-395.528l-108.463,-0l-0,209.038l-162.76,-209.038l-102.284,-0l-0,395.528Zm-392.57,0l320.984,0l0,-93.212l-212.456,-0l0,-62.777l189.843,-0l0,-86.442l-189.843,-0l0,-59.885l209.63,0l-0,-93.212l-318.158,-0l-0,395.528Zm-248.413,7.888c71.717,0 129.958,-26.557 171.766,-61.002l-0,-178.011l-181.955,0l-0,80.263l77.962,0l-0,48.052c-16.368,10.715 -36.746,16.368 -63.303,16.368c-62.712,0 -107.346,-45.751 -107.346,-109.646l0,-1.117c0,-60.477 44.043,-108.529 101.167,-108.529c38.981,0 67.181,13.607 95.447,37.338l64.42,-77.436c-41.807,-36.155 -90.977,-57.65 -160.459,-57.65c-122.596,-0 -213.047,90.451 -213.047,205.685l-0,1.183c-0,119.77 92.16,204.502 215.348,204.502m-399.933,-7.888l110.172,0l0,-395.528l-110.172,-0l0,395.528Zm-394.87,0l320.984,0l0,-93.212l-212.456,-0l0,-62.777l189.843,-0l0,-86.442l-189.843,-0l0,-59.885l209.629,0l0,-93.212l-318.157,-0l-0,395.528Zm-228.693,6.771c96.105,-0 159.934,-48.053 159.934,-128.841l-0,-1.118c-0,-74.017 -56.467,-103.401 -147.444,-123.187c-54.823,-12.424 -68.365,-20.312 -68.365,-38.389l0,-1.184c0,-14.133 12.95,-25.439 39.507,-25.439c35.037,-0 74.609,13.607 110.764,39.047l54.823,-77.436c-42.925,-34.511 -95.513,-52.589 -162.76,-52.589c-94.922,0 -153.097,53.18 -153.097,126.606l-0,1.118c-0,81.38 64.946,105.11 149.153,124.305c53.705,12.424 66.655,21.495 66.655,37.863l-0,1.184c-0,16.959 -15.777,27.082 -45.16,27.082c-45.817,0 -89.268,-16.368 -128.315,-47.46l-61.002,72.9c48.578,43.517 115.233,65.538 185.307,65.538" style="fill:#b2a564;"/><path d="M3142.14,3464.82l-24.756,14.155l-35.195,-61.55l24.756,-14.155l35.195,61.55Z" style="fill:#fff;stroke:#fff;stroke-width:5.9px;"/><path d="M5156.7,3403.27l24.755,14.155l-35.195,61.55l-24.756,-14.155l35.196,-61.55Z" style="fill:#fff;stroke:#fff;stroke-width:5.9px;"/><path d="M3208.65,3428.26l-24.755,14.155l-35.195,-61.55l24.755,-14.156l35.195,61.551Z" style="fill:#fff;stroke:#fff;stroke-width:5.9px;"/><path d="M5090.18,3366.71l24.756,14.156l-35.195,61.55l-24.756,-14.155l35.195,-61.551Z" style="fill:#fff;stroke:#fff;stroke-width:5.9px;"/><path d="M3275.18,3391.72l-24.756,14.155l-35.195,-61.551l24.756,-14.155l35.195,61.551Z" style="fill:#fff;stroke:#fff;stroke-width:5.9px;"/><path d="M5023.67,3330.17l24.755,14.155l-35.195,61.551l-24.755,-14.155l35.195,-61.551Z" style="fill:#fff;stroke:#fff;stroke-width:5.9px;"/><path d="M3341.7,3355.18l-24.755,14.156l-35.195,-61.551l24.755,-14.155l35.195,61.55Z" style="fill:#fff;stroke:#fff;stroke-width:5.9px;"/><path d="M4957.14,3293.63l24.756,14.155l-35.195,61.551l-24.756,-14.156l35.195,-61.55Z" style="fill:#fff;stroke:#fff;stroke-width:5.9px;"/><path d="M3408.23,3318.62l-24.756,14.155l-35.195,-61.55l24.756,-14.155l35.195,61.55Z" style="fill:#fff;stroke:#fff;stroke-width:5.9px;"/><path d="M4890.64,3257.07l24.755,14.155l-35.195,61.55l-24.755,-14.155l35.195,-61.55Z" style="fill:#fff;stroke:#fff;stroke-width:5.9px;"/><path d="M3478.89,3257.08l23.623,15.991l-39.745,58.718l-23.623,-15.991l39.745,-58.718Z" style="fill:#fff;stroke:#fff;stroke-width:5.9px;"/><path d="M4824.5,3315.8l-23.624,15.991l-39.745,-58.718l23.623,-15.991l39.746,58.718Z" style="fill:#fff;stroke:#fff;stroke-width:5.9px;"/><path d="M3544.26,3300.34l23.623,15.99l-39.745,58.719l-23.623,-15.991l39.745,-58.718Z" style="fill:#fff;stroke:#fff;stroke-width:5.9px;"/><path d="M4759.13,3359.06l-23.624,15.991l-39.745,-58.719l23.623,-15.99l39.746,58.718Z" style="fill:#fff;stroke:#fff;stroke-width:5.9px;"/><path d="M3609.63,3343.61l23.623,15.99l-39.745,58.718l-23.623,-15.99l39.745,-58.718Z" style="fill:#fff;stroke:#fff;stroke-width:5.9px;"/><path d="M4693.78,3402.33l-23.624,15.99l-39.745,-58.718l23.624,-15.99l39.745,58.718Z" style="fill:#fff;stroke:#fff;stroke-width:5.9px;"/><path d="M3674.99,3386.88l23.623,15.99l-39.745,58.718l-23.623,-15.99l39.745,-58.718Z" style="fill:#fff;stroke:#fff;stroke-width:5.9px;"/><path d="M4628.41,3445.6l-23.624,15.99l-39.745,-58.718l23.624,-15.99l39.745,58.718Z" style="fill:#fff;stroke:#fff;stroke-width:5.9px;"/><path d="M3740.34,3430.14l23.624,15.99l-39.746,58.718l-23.623,-15.99l39.745,-58.718Z" style="fill:#fff;stroke:#fff;stroke-width:5.9px;"/><path d="M4563.04,3488.86l-23.624,15.99l-39.745,-58.718l23.624,-15.99l39.745,58.718Z" style="fill:#fff;stroke:#fff;stroke-width:5.9px;"/><path d="M3805.71,3473.41l23.624,15.99l-39.746,58.718l-23.623,-15.99l39.745,-58.718Z" style="fill:#fff;stroke:#fff;stroke-width:5.9px;"/><path d="M4497.67,3532.13l-23.624,15.99l-39.745,-58.718l23.624,-15.99l39.745,58.718Z" style="fill:#fff;stroke:#fff;stroke-width:5.9px;"/><path d="M3871.08,3516.68l23.624,15.99l-39.746,58.718l-23.623,-15.99l39.745,-58.718Z" style="fill:#fff;stroke:#fff;stroke-width:5.9px;"/><path d="M4432.33,3575.4l-23.624,15.99l-39.745,-58.718l23.624,-15.99l39.745,58.718Z" style="fill:#fff;stroke:#fff;stroke-width:5.9px;"/><path d="M3936.43,3559.95l23.623,15.99l-39.745,58.718l-23.623,-15.99l39.745,-58.718Z" style="fill:#fff;stroke:#fff;stroke-width:5.9px;"/><path d="M4366.97,3618.67l-23.624,15.99l-39.745,-58.718l23.624,-15.99l39.745,58.718Z" style="fill:#fff;stroke:#fff;stroke-width:5.9px;"/><path d="M4001.8,3603.23l23.623,15.99l-39.745,58.718l-23.623,-15.99l39.745,-58.718Z" style="fill:#fff;stroke:#fff;stroke-width:5.9px;"/><path d="M4301.6,3661.95l-23.624,15.99l-39.745,-58.718l23.624,-15.99l39.745,58.718Z" style="fill:#fff;stroke:#fff;stroke-width:5.9px;"/><path d="M5019.99,3618.43l24.755,14.155l-35.195,61.55l-24.755,-14.155l35.195,-61.55Z" style="fill:#fff;stroke:#fff;stroke-width:5.9px;"/><path d="M3190.33,3644.68l231.847,-125.751l706.982,466.194l706.915,-466.194l237.041,131.076c30.501,16.302 62.843,-33.328 36.22,-54.429l-273.261,-146.918l-706.915,466.194l-706.982,-466.194l-265.701,144.683c-28.923,20.247 -0.197,67.182 33.854,51.339Z" style="fill:#fff;stroke:#fff;stroke-width:5.9px;"/><path d="M3092.17,3552.39l329.991,-178.931l706.981,466.128l706.981,-466.128l342.743,190.106c30.501,16.303 62.843,-33.327 36.154,-54.428l-378.897,-206.014l-706.981,466.193l-706.981,-466.193l-363.844,197.928c-28.924,20.247 -0.197,67.181 33.853,51.339Z" style="fill:#fff;stroke:#fff;stroke-width:5.9px;"/><rect x="4080.6" y="1936.77" width="103.336" height="1850.84" style="fill:#fff;stroke:#fff;stroke-width:6.82px;"/><path d="M3790.3,2992.12l91.208,91.207l-91.208,91.208l-91.207,-91.208l91.207,-91.207Z" style="fill:#fff;stroke:#fff;stroke-width:5.9px;"/><path d="M4473.33,2992.12l91.207,91.207l-91.207,91.208l-91.208,-91.208l91.208,-91.207Z" style="fill:#fff;stroke:#fff;stroke-width:5.9px;"/><path d="M3790.36,2499.46l91.142,91.207l-91.274,91.208l-91.141,-91.208l91.273,-91.207Z" style="fill:#fff;stroke:#fff;stroke-width:5.9px;"/><path d="M4473.4,2499.46l91.141,91.207l-91.273,91.208l-91.142,-91.208l91.274,-91.207Z" style="fill:#fff;stroke:#fff;stroke-width:5.9px;"/><path d="M3790.3,2027.45l91.208,91.207l-91.208,91.208l-91.207,-91.208l91.207,-91.207Z" style="fill:#fff;stroke:#fff;stroke-width:5.9px;"/><path d="M4131.37,1693.04l91.208,91.207l-91.208,91.208l-91.207,-91.208l91.207,-91.207Z" style="fill:#fff;stroke:#fff;stroke-width:5.9px;"/><path d="M4473.33,2027.45l91.207,91.207l-91.207,91.208l-91.208,-91.208l91.208,-91.207Z" style="fill:#fff;stroke:#fff;stroke-width:5.9px;"/><path d="M4131.38,1649.21l-135.019,135.02l135.019,135.086l135.02,-135.086l-135.02,-135.02Zm0,-74.214l209.301,209.234l-209.301,209.301l-209.3,-209.301l209.3,-209.234Z" style="fill:#fff;stroke:#fff;stroke-width:5.9px;"/><path d="M4473.35,1978.3l-142.053,140.345l107.805,106.162l-256.038,248.084l-0,75.924l290.286,-289.76l140.345,-140.41l-140.345,-140.345Zm0,-63.303l203.647,203.648l-203.647,203.713l-290.286,289.432l-0,-202.136l192.472,-185.11l-105.833,-105.899l203.647,-203.648Z" style="fill:#fff;stroke:#fff;stroke-width:5.9px;"/><path d="M4473.35,2450.3l-142.053,140.344l107.805,106.162l-256.038,248.085l-0,75.924l290.286,-289.761l140.345,-140.41l-140.345,-140.344Zm0,-63.303l203.647,203.647l-203.647,203.647l-290.286,289.498l-0,-202.201l192.472,-185.11l-105.833,-105.834l203.647,-203.647Z" style="fill:#fff;stroke:#fff;stroke-width:5.9px;"/><path d="M4473.35,2942.96l-142.053,140.344l107.805,106.163l-256.038,248.084l-0,75.924l290.286,-289.76l140.345,-140.411l-140.345,-140.344Zm0,-63.303l203.647,203.647l-203.647,203.714l-290.286,289.431l-0,-202.201l192.472,-185.11l-105.833,-105.834l203.647,-203.647Z" style="fill:#fff;stroke:#fff;stroke-width:5.9px;"/><path d="M3790.31,1978.3l141.988,140.345l-107.74,106.162l256.038,248.084l0,75.924l-290.286,-289.76l-140.344,-140.41l140.344,-140.345Zm0,-63.303l-203.647,203.648l203.647,203.713l290.286,289.432l0,-202.136l-192.472,-185.11l105.834,-105.899l-203.648,-203.648Z" style="fill:#fff;stroke:#fff;stroke-width:5.9px;"/><path d="M3790.31,2450.3l141.988,140.344l-107.74,106.162l256.038,248.085l0,75.924l-290.286,-289.761l-140.344,-140.41l140.344,-140.344Zm0,-63.303l-203.647,203.647l203.647,203.647l290.286,289.498l0,-202.201l-192.472,-185.11l105.834,-105.834l-203.648,-203.647Z" style="fill:#fff;stroke:#fff;stroke-width:5.9px;"/><path d="M3790.31,2942.96l141.988,140.344l-107.74,106.163l256.038,248.084l0,75.924l-290.286,-289.76l-140.344,-140.411l140.344,-140.344Zm0,-63.303l-203.647,203.647l203.647,203.714l290.286,289.431l0,-202.201l-192.472,-185.11l105.834,-105.834l-203.648,-203.647Z" style="fill:#fff;stroke:#fff;stroke-width:5.9px;"/><path d="M4357.4,4990.25l-79.211,79.211l-2488.27,-2488.27l79.211,-79.211l2488.27,2488.27Z" style="fill:#fff;stroke:#fff;stroke-width:5.91px;"/><path d="M6394.9,2501.99l79.211,79.211l-2488.27,2488.27l-79.21,-79.211l2488.27,-2488.27Z" style="fill:#fff;stroke:#fff;stroke-width:5.91px;"/><path d="M3906.63,464.469l79.21,-79.211l2488.27,2488.27l-79.211,79.21l-2488.27,-2488.27Z" style="fill:#fff;stroke:#fff;stroke-width:5.91px;"/><path d="M4497.51,4850.16l-87.888,87.888l-2488.27,-2488.27l87.888,-87.888l2488.27,2488.27Z" style="fill:#fff;stroke:#fff;stroke-width:5.9px;"/><path d="M3766.52,604.583l87.888,-87.887l2488.27,2488.27l-87.888,87.888l-2488.27,-2488.27Z" style="fill:#fff;stroke:#fff;stroke-width:5.9px;"/><path d="M2009.24,3092.84l-87.888,-87.888l2488.27,-2488.27l87.888,87.888l-2488.27,2488.27Z" style="fill:#fff;stroke:#fff;stroke-width:5.9px;"/><path d="M1869.14,2952.76l-79.211,-79.211l2488.27,-2488.27l79.211,79.211l-2488.27,2488.27Z" style="fill:#fff;stroke:#fff;stroke-width:5.91px;"/><path d="M6254.81,2361.87l87.888,87.888l-2488.27,2488.27l-87.888,-87.888l2488.27,-2488.27Z" style="fill:#fff;stroke:#fff;stroke-width:5.9px;"/><path d="M3512.36,1499.02l45.226,45.226l277.994,-277.994l166.704,166.639l-173.015,172.949l-102.875,-102.941l99.72,-99.72l28.924,28.857l-52.917,52.851l45.226,45.226l98.076,-98.077l-119.309,-119.309l-190.172,190.172l193.327,193.393l263.401,-263.401c-85.653,-85.653 -171.371,-171.372 -257.09,-257.09l-323.22,323.219Z" style="fill:#fff;stroke:#fff;stroke-width:5.9px;"/><path d="M3011.25,2000.38l45.225,45.225l277.994,-277.993l166.639,166.704l-172.95,172.949l-102.875,-102.941l99.72,-99.786l28.924,28.858l-52.917,52.851l45.226,45.225l98.076,-98.076l-119.309,-119.31l-190.171,190.238l193.326,193.327l263.401,-263.335c-85.718,-85.719 -171.371,-171.437 -257.09,-257.156l-323.219,323.22Z" style="fill:#fff;stroke:#fff;stroke-width:5.9px;"/><path d="M2508.69,2502.96l45.226,45.226l277.993,-277.994l166.639,166.638l-172.949,172.95l-102.941,-102.876l99.786,-99.786l28.857,28.858l-52.851,52.851l45.226,45.226l98.077,-98.077l-119.309,-119.309l-190.172,190.237l193.327,193.327l263.4,-263.401c-85.718,-85.652 -171.371,-171.371 -257.09,-257.09l-323.219,323.22Z" style="fill:#fff;stroke:#fff;stroke-width:5.91px;"/><path d="M4751.66,1499.02l-45.226,45.226l-277.994,-277.994l-166.704,166.639l172.949,172.949l102.941,-102.941l-99.785,-99.72l-28.858,28.857l52.917,52.851l-45.226,45.226l-98.077,-98.077l119.244,-119.309l190.237,190.172l-193.393,193.393l-263.335,-263.401c85.653,-85.653 171.372,-171.372 257.09,-257.09l323.22,323.219Z" style="fill:#fff;stroke:#fff;stroke-width:5.9px;"/><path d="M5252.76,2000.38l-45.226,45.225l-277.994,-277.993l-166.704,166.704l172.949,172.949l103.007,-102.941l-99.786,-99.786l-28.858,28.858l52.851,52.851l-45.225,45.225l-98.077,-98.076l119.309,-119.31l190.172,190.238l-193.393,193.327l-263.335,-263.335c85.719,-85.719 171.372,-171.437 257.09,-257.156l323.22,323.22Z" style="fill:#fff;stroke:#fff;stroke-width:5.9px;"/><path d="M5755.34,2502.96l-45.226,45.226l-277.993,-277.994l-166.705,166.638l172.949,172.95l102.942,-102.876l-99.786,-99.786l-28.858,28.858l52.917,52.851l-45.226,45.226l-98.077,-98.077l119.244,-119.309l190.237,190.237l-193.393,193.327l-263.334,-263.401c85.652,-85.652 171.371,-171.371 257.09,-257.09l323.219,323.22Z" style="fill:#fff;stroke:#fff;stroke-width:5.91px;"/><path d="M3341.7,3643.42l-24.755,14.156l-35.195,-61.551l24.755,-14.155l35.195,61.55Z" style="fill:#fff;stroke:#fff;stroke-width:5.9px;"/><path d="M4957.14,3581.87l24.756,14.155l-35.195,61.551l-24.756,-14.156l35.195,-61.55Z" style="fill:#fff;stroke:#fff;stroke-width:5.9px;"/><path d="M3408.23,3606.88l-24.756,14.155l-35.195,-61.55l24.756,-14.156l35.195,61.551Z" style="fill:#fff;stroke:#fff;stroke-width:5.9px;"/><path d="M4890.64,3545.33l24.755,14.156l-35.195,61.55l-24.755,-14.155l35.195,-61.551Z" style="fill:#fff;stroke:#fff;stroke-width:5.9px;"/><path d="M3478.89,3545.32l23.623,15.991l-39.745,58.718l-23.623,-15.991l39.745,-58.718Z" style="fill:#fff;stroke:#fff;stroke-width:5.9px;"/><path d="M4824.5,3604.04l-23.624,15.991l-39.745,-58.718l23.623,-15.991l39.746,58.718Z" style="fill:#fff;stroke:#fff;stroke-width:5.9px;"/><path d="M3544.26,3588.59l23.623,15.99l-39.745,58.719l-23.623,-15.991l39.745,-58.718Z" style="fill:#fff;stroke:#fff;stroke-width:5.9px;"/><path d="M4759.13,3647.3l-23.624,15.991l-39.745,-58.719l23.623,-15.99l39.746,58.718Z" style="fill:#fff;stroke:#fff;stroke-width:5.9px;"/><path d="M3609.63,3631.87l23.623,15.99l-39.745,58.718l-23.623,-15.99l39.745,-58.718Z" style="fill:#fff;stroke:#fff;stroke-width:5.9px;"/><path d="M4693.78,3690.59l-23.624,15.99l-39.745,-58.718l23.624,-15.99l39.745,58.718Z" style="fill:#fff;stroke:#fff;stroke-width:5.9px;"/><path d="M3674.99,3675.14l23.623,15.99l-39.745,58.718l-23.623,-15.99l39.745,-58.718Z" style="fill:#fff;stroke:#fff;stroke-width:5.9px;"/><path d="M4628.41,3733.86l-23.624,15.99l-39.745,-58.718l23.624,-15.99l39.745,58.718Z" style="fill:#fff;stroke:#fff;stroke-width:5.9px;"/><path d="M3740.34,3718.41l23.624,15.991l-39.746,58.718l-23.623,-15.991l39.745,-58.718Z" style="fill:#fff;stroke:#fff;stroke-width:5.9px;"/><path d="M4563.04,3777.12l-23.624,15.991l-39.745,-58.718l23.624,-15.991l39.745,58.718Z" style="fill:#fff;stroke:#fff;stroke-width:5.9px;"/><path d="M3805.71,3761.67l23.624,15.991l-39.746,58.718l-23.623,-15.991l39.745,-58.718Z" style="fill:#fff;stroke:#fff;stroke-width:5.9px;"/><path d="M4497.67,3820.39l-23.624,15.991l-39.745,-58.718l23.624,-15.991l39.745,58.718Z" style="fill:#fff;stroke:#fff;stroke-width:5.9px;"/><path d="M3871.08,3804.94l23.624,15.99l-39.746,58.718l-23.623,-15.99l39.745,-58.718Z" style="fill:#fff;stroke:#fff;stroke-width:5.9px;"/><path d="M4432.33,3863.66l-23.624,15.99l-39.745,-58.718l23.624,-15.99l39.745,58.718Z" style="fill:#fff;stroke:#fff;stroke-width:5.9px;"/><path d="M3936.43,3848.21l23.623,15.99l-39.745,58.718l-23.623,-15.99l39.745,-58.718Z" style="fill:#fff;stroke:#fff;stroke-width:5.9px;"/><path d="M4366.97,3906.93l-23.624,15.99l-39.745,-58.718l23.624,-15.99l39.745,58.718Z" style="fill:#fff;stroke:#fff;stroke-width:5.9px;"/><path d="M4001.8,3891.48l23.623,15.991l-39.745,58.718l-23.623,-15.991l39.745,-58.718Z" style="fill:#fff;stroke:#fff;stroke-width:5.9px;"/><path d="M4301.6,3950.2l-23.624,15.991l-39.745,-58.718l23.624,-15.991l39.745,58.718Z" style="fill:#fff;stroke:#fff;stroke-width:5.9px;"/><path d="M4067.16,3934.75l23.623,15.991l-39.745,58.718l-23.623,-15.991l39.745,-58.718Z" style="fill:#fff;stroke:#fff;stroke-width:5.9px;"/><path d="M4236.25,3993.47l-23.624,15.991l-39.745,-58.718l23.624,-15.991l39.745,58.718Z" style="fill:#fff;stroke:#fff;stroke-width:5.9px;"/><path d="M2374.72,2727.37l1757.3,-1757.3l1757.3,1757.3l-1757.3,1757.3l-1757.3,-1757.3Z" style="fill:#fff;"/><path d="M3142.14,3464.82l-24.756,14.155l-35.195,-61.55l24.756,-14.155l35.195,61.55Z" style="fill:#510b1e;"/><path d="M5156.7,3403.27l24.755,14.155l-35.195,61.55l-24.756,-14.155l35.196,-61.55Z" style="fill:#510b1e;"/><path d="M3208.65,3428.26l-24.755,14.155l-35.195,-61.55l24.755,-14.156l35.195,61.551Z" style="fill:#510b1e;"/><path d="M5090.18,3366.71l24.756,14.156l-35.195,61.55l-24.756,-14.155l35.195,-61.551Z" style="fill:#510b1e;"/><path d="M3275.18,3391.72l-24.756,14.155l-35.195,-61.551l24.756,-14.155l35.195,61.551Z" style="fill:#510b1e;"/><path d="M5023.67,3330.17l24.755,14.155l-35.195,61.551l-24.755,-14.155l35.195,-61.551Z" style="fill:#510b1e;"/><path d="M3341.7,3355.18l-24.755,14.156l-35.195,-61.551l24.755,-14.155l35.195,61.55Z" style="fill:#510b1e;"/><path d="M4957.14,3293.63l24.756,14.155l-35.195,61.551l-24.756,-14.156l35.195,-61.55Z" style="fill:#510b1e;"/><path d="M3408.23,3318.62l-24.756,14.155l-35.195,-61.55l24.756,-14.155l35.195,61.55Z" style="fill:#510b1e;"/><path d="M4890.64,3257.07l24.755,14.155l-35.195,61.55l-24.755,-14.155l35.195,-61.55Z" style="fill:#510b1e;"/><path d="M3478.89,3257.08l23.623,15.991l-39.745,58.718l-23.623,-15.991l39.745,-58.718Z" style="fill:#510b1e;"/><path d="M4824.5,3315.8l-23.624,15.991l-39.745,-58.718l23.623,-15.991l39.746,58.718Z" style="fill:#510b1e;"/><path d="M3544.26,3300.34l23.623,15.99l-39.745,58.719l-23.623,-15.991l39.745,-58.718Z" style="fill:#510b1e;"/><path d="M4759.13,3359.06l-23.624,15.991l-39.745,-58.719l23.623,-15.99l39.746,58.718Z" style="fill:#510b1e;"/><path d="M3609.63,3343.61l23.623,15.99l-39.745,58.718l-23.623,-15.99l39.745,-58.718Z" style="fill:#510b1e;"/><path d="M4693.78,3402.33l-23.624,15.99l-39.745,-58.718l23.624,-15.99l39.745,58.718Z" style="fill:#510b1e;"/><path d="M3674.99,3386.88l23.623,15.99l-39.745,58.718l-23.623,-15.99l39.745,-58.718Z" style="fill:#510b1e;"/><path d="M4628.41,3445.6l-23.624,15.99l-39.745,-58.718l23.624,-15.99l39.745,58.718Z" style="fill:#510b1e;"/><path d="M3740.34,3430.14l23.624,15.99l-39.746,58.718l-23.623,-15.99l39.745,-58.718Z" style="fill:#510b1e;"/><path d="M4563.04,3488.86l-23.624,15.99l-39.745,-58.718l23.624,-15.99l39.745,58.718Z" style="fill:#510b1e;"/><path d="M3805.71,3473.41l23.624,15.99l-39.746,58.718l-23.623,-15.99l39.745,-58.718Z" style="fill:#510b1e;"/><path d="M4497.67,3532.13l-23.624,15.99l-39.745,-58.718l23.624,-15.99l39.745,58.718Z" style="fill:#510b1e;"/><path d="M3871.08,3516.68l23.624,15.99l-39.746,58.718l-23.623,-15.99l39.745,-58.718Z" style="fill:#510b1e;"/><path d="M4432.33,3575.4l-23.624,15.99l-39.745,-58.718l23.624,-15.99l39.745,58.718Z" style="fill:#510b1e;"/><path d="M3936.43,3559.95l23.623,15.99l-39.745,58.718l-23.623,-15.99l39.745,-58.718Z" style="fill:#510b1e;"/><path d="M4366.97,3618.67l-23.624,15.99l-39.745,-58.718l23.624,-15.99l39.745,58.718Z" style="fill:#510b1e;"/><path d="M4001.8,3603.23l23.623,15.99l-39.745,58.718l-23.623,-15.99l39.745,-58.718Z" style="fill:#510b1e;"/><path d="M4301.6,3661.95l-23.624,15.99l-39.745,-58.718l23.624,-15.99l39.745,58.718Z" style="fill:#510b1e;"/><path d="M5019.99,3618.43l24.755,14.155l-35.195,61.55l-24.755,-14.155l35.195,-61.55Z" style="fill:#510b1e;"/><path d="M3190.33,3644.68l231.847,-125.751l706.982,466.194l706.915,-466.194l237.041,131.076c30.501,16.302 62.843,-33.328 36.22,-54.429l-273.261,-146.918l-706.915,466.194l-706.982,-466.194l-265.701,144.683c-28.923,20.247 -0.197,67.182 33.854,51.339" style="fill:#9a1a31;"/><path d="M3092.17,3552.39l329.991,-178.931l706.981,466.128l706.981,-466.128l342.743,190.106c30.501,16.303 62.843,-33.327 36.154,-54.428l-378.897,-206.014l-706.981,466.193l-706.981,-466.193l-363.844,197.928c-28.924,20.247 -0.197,67.181 33.853,51.339" style="fill:#510b1e;"/><rect x="4080.6" y="1936.77" width="103.336" height="1850.84" style="fill:#510b1e;"/><path d="M3790.3,2992.12l91.208,91.207l-91.208,91.208l-91.207,-91.208l91.207,-91.207Z" style="fill:#9a1a31;"/><path d="M4473.33,2992.12l91.207,91.207l-91.207,91.208l-91.208,-91.208l91.208,-91.207Z" style="fill:#9a1a31;"/><path d="M3790.36,2499.46l91.142,91.207l-91.274,91.208l-91.141,-91.208l91.273,-91.207Z" style="fill:#9a1a31;"/><path d="M4473.4,2499.46l91.141,91.207l-91.273,91.208l-91.142,-91.208l91.274,-91.207Z" style="fill:#9a1a31;"/><path d="M3790.3,2027.45l91.208,91.207l-91.208,91.208l-91.207,-91.208l91.207,-91.207Z" style="fill:#9a1a31;"/><path d="M4131.37,1693.04l91.208,91.207l-91.208,91.208l-91.207,-91.208l91.207,-91.207Z" style="fill:#9a1a31;"/><path d="M4473.33,2027.45l91.207,91.207l-91.207,91.208l-91.208,-91.208l91.208,-91.207Z" style="fill:#9a1a31;"/><path d="M4131.38,1649.21l-135.019,135.02l135.019,135.086l135.02,-135.086l-135.02,-135.02Zm0,-74.214l209.301,209.234l-209.301,209.301l-209.3,-209.301l209.3,-209.234Z" style="fill:#510b1e;"/><path d="M4473.35,1978.3l-142.053,140.345l107.805,106.162l-256.038,248.084l-0,75.924l290.286,-289.76l140.345,-140.41l-140.345,-140.345Zm0,-63.303l203.647,203.648l-203.647,203.713l-290.286,289.432l-0,-202.136l192.472,-185.11l-105.833,-105.899l203.647,-203.648Z" style="fill:#510b1e;"/><path d="M4473.35,2450.3l-142.053,140.344l107.805,106.162l-256.038,248.085l-0,75.924l290.286,-289.761l140.345,-140.41l-140.345,-140.344Zm0,-63.303l203.647,203.647l-203.647,203.647l-290.286,289.498l-0,-202.201l192.472,-185.11l-105.833,-105.834l203.647,-203.647Z" style="fill:#510b1e;"/><path d="M4473.35,2942.96l-142.053,140.344l107.805,106.163l-256.038,248.084l-0,75.924l290.286,-289.76l140.345,-140.411l-140.345,-140.344Zm0,-63.303l203.647,203.647l-203.647,203.714l-290.286,289.431l-0,-202.201l192.472,-185.11l-105.833,-105.834l203.647,-203.647Z" style="fill:#510b1e;"/><path d="M3790.31,1978.3l141.988,140.345l-107.74,106.162l256.038,248.084l0,75.924l-290.286,-289.76l-140.344,-140.41l140.344,-140.345Zm0,-63.303l-203.647,203.648l203.647,203.713l290.286,289.432l0,-202.136l-192.472,-185.11l105.834,-105.899l-203.648,-203.648Z" style="fill:#510b1e;"/><path d="M3790.31,2450.3l141.988,140.344l-107.74,106.162l256.038,248.085l0,75.924l-290.286,-289.761l-140.344,-140.41l140.344,-140.344Zm0,-63.303l-203.647,203.647l203.647,203.647l290.286,289.498l0,-202.201l-192.472,-185.11l105.834,-105.834l-203.648,-203.647Z" style="fill:#510b1e;"/><path d="M3790.31,2942.96l141.988,140.344l-107.74,106.163l256.038,248.084l0,75.924l-290.286,-289.76l-140.344,-140.411l140.344,-140.344Zm0,-63.303l-203.647,203.647l203.647,203.714l290.286,289.431l0,-202.201l-192.472,-185.11l105.834,-105.834l-203.648,-203.647Z" style="fill:#510b1e;"/><path d="M4357.4,4990.25l-79.211,79.211l-2488.27,-2488.27l79.211,-79.211l2488.27,2488.27Z" style="fill:#ae9852;"/><path d="M6394.9,2501.99l79.211,79.211l-2488.27,2488.27l-79.21,-79.211l2488.27,-2488.27Z" style="fill:#ae9852;"/><path d="M3906.63,464.469l79.21,-79.211l2488.27,2488.27l-79.211,79.21l-2488.27,-2488.27Z" style="fill:#ae9852;"/><path d="M4497.51,4850.16l-87.888,87.888l-2488.27,-2488.27l87.888,-87.888l2488.27,2488.27Z" style="fill:#9a1a31;"/><path d="M3766.52,604.583l87.888,-87.887l2488.27,2488.27l-87.888,87.888l-2488.27,-2488.27Z" style="fill:#9a1a31;"/><path d="M2009.24,3092.84l-87.888,-87.888l2488.27,-2488.27l87.888,87.888l-2488.27,2488.27Z" style="fill:#510b1e;"/><path d="M1869.14,2952.76l-79.211,-79.211l2488.27,-2488.27l79.211,79.211l-2488.27,2488.27Z" style="fill:#ae9852;"/><path d="M6254.81,2361.87l87.888,87.888l-2488.27,2488.27l-87.888,-87.888l2488.27,-2488.27Z" style="fill:#510b1e;"/><path d="M3512.36,1499.02l45.226,45.226l277.994,-277.994l166.704,166.639l-173.015,172.949l-102.875,-102.941l99.72,-99.72l28.924,28.857l-52.917,52.851l45.226,45.226l98.076,-98.077l-119.309,-119.309l-190.172,190.172l193.327,193.393l263.401,-263.401c-85.653,-85.653 -171.371,-171.372 -257.09,-257.09l-323.22,323.219Z" style="fill:#510b1e;"/><path d="M3011.25,2000.38l45.225,45.225l277.994,-277.993l166.639,166.704l-172.95,172.949l-102.875,-102.941l99.72,-99.786l28.924,28.858l-52.917,52.851l45.226,45.225l98.076,-98.076l-119.309,-119.31l-190.171,190.238l193.326,193.327l263.401,-263.335c-85.718,-85.719 -171.371,-171.437 -257.09,-257.156l-323.219,323.22Z" style="fill:#510b1e;"/><path d="M2508.69,2502.96l45.226,45.226l277.993,-277.994l166.639,166.638l-172.949,172.95l-102.941,-102.876l99.786,-99.786l28.857,28.858l-52.851,52.851l45.226,45.226l98.077,-98.077l-119.309,-119.309l-190.172,190.237l193.327,193.327l263.4,-263.401c-85.718,-85.652 -171.371,-171.371 -257.09,-257.09l-323.219,323.22Z" style="fill:#510b1e;"/><path d="M4751.66,1499.02l-45.226,45.226l-277.994,-277.994l-166.704,166.639l172.949,172.949l102.941,-102.941l-99.785,-99.72l-28.858,28.857l52.917,52.851l-45.226,45.226l-98.077,-98.077l119.244,-119.309l190.237,190.172l-193.393,193.393l-263.335,-263.401c85.653,-85.653 171.372,-171.372 257.09,-257.09l323.22,323.219Z" style="fill:#9a1a31;"/><path d="M5252.76,2000.38l-45.226,45.225l-277.994,-277.993l-166.704,166.704l172.949,172.949l103.007,-102.941l-99.786,-99.786l-28.858,28.858l52.851,52.851l-45.225,45.225l-98.077,-98.076l119.309,-119.31l190.172,190.238l-193.393,193.327l-263.335,-263.335c85.719,-85.719 171.372,-171.437 257.09,-257.156l323.22,323.22Z" style="fill:#9a1a31;"/><path d="M5755.34,2502.96l-45.226,45.226l-277.993,-277.994l-166.705,166.638l172.949,172.95l102.942,-102.876l-99.786,-99.786l-28.858,28.858l52.917,52.851l-45.226,45.226l-98.077,-98.077l119.244,-119.309l190.237,190.237l-193.393,193.327l-263.334,-263.401c85.652,-85.652 171.371,-171.371 257.09,-257.09l323.219,323.22Z" style="fill:#9a1a31;"/><path d="M3341.7,3643.42l-24.755,14.156l-35.195,-61.551l24.755,-14.155l35.195,61.55Z" style="fill:#9a1a31;"/><path d="M4957.14,3581.87l24.756,14.155l-35.195,61.551l-24.756,-14.156l35.195,-61.55Z" style="fill:#9a1a31;"/><path d="M3408.23,3606.88l-24.756,14.155l-35.195,-61.55l24.756,-14.156l35.195,61.551Z" style="fill:#9a1a31;"/><path d="M4890.64,3545.33l24.755,14.156l-35.195,61.55l-24.755,-14.155l35.195,-61.551Z" style="fill:#9a1a31;"/><path d="M3478.89,3545.32l23.623,15.991l-39.745,58.718l-23.623,-15.991l39.745,-58.718Z" style="fill:#9a1a31;"/><path d="M4824.5,3604.04l-23.624,15.991l-39.745,-58.718l23.623,-15.991l39.746,58.718Z" style="fill:#9a1a31;"/><path d="M3544.26,3588.59l23.623,15.99l-39.745,58.719l-23.623,-15.991l39.745,-58.718Z" style="fill:#9a1a31;"/><path d="M4759.13,3647.3l-23.624,15.991l-39.745,-58.719l23.623,-15.99l39.746,58.718Z" style="fill:#9a1a31;"/><path d="M3609.63,3631.87l23.623,15.99l-39.745,58.718l-23.623,-15.99l39.745,-58.718Z" style="fill:#9a1a31;"/><path d="M4693.78,3690.59l-23.624,15.99l-39.745,-58.718l23.624,-15.99l39.745,58.718Z" style="fill:#9a1a31;"/><path d="M3674.99,3675.14l23.623,15.99l-39.745,58.718l-23.623,-15.99l39.745,-58.718Z" style="fill:#9a1a31;"/><path d="M4628.41,3733.86l-23.624,15.99l-39.745,-58.718l23.624,-15.99l39.745,58.718Z" style="fill:#9a1a31;"/><path d="M3740.34,3718.41l23.624,15.991l-39.746,58.718l-23.623,-15.991l39.745,-58.718Z" style="fill:#9a1a31;"/><path d="M4563.04,3777.12l-23.624,15.991l-39.745,-58.718l23.624,-15.991l39.745,58.718Z" style="fill:#9a1a31;"/><path d="M3805.71,3761.67l23.624,15.991l-39.746,58.718l-23.623,-15.991l39.745,-58.718Z" style="fill:#9a1a31;"/><path d="M4497.67,3820.39l-23.624,15.991l-39.745,-58.718l23.624,-15.991l39.745,58.718Z" style="fill:#9a1a31;"/><path d="M3871.08,3804.94l23.624,15.99l-39.746,58.718l-23.623,-15.99l39.745,-58.718Z" style="fill:#9a1a31;"/><path d="M4432.33,3863.66l-23.624,15.99l-39.745,-58.718l23.624,-15.99l39.745,58.718Z" style="fill:#9a1a31;"/><path d="M3936.43,3848.21l23.623,15.99l-39.745,58.718l-23.623,-15.99l39.745,-58.718Z" style="fill:#9a1a31;"/><path d="M4366.97,3906.93l-23.624,15.99l-39.745,-58.718l23.624,-15.99l39.745,58.718Z" style="fill:#9a1a31;"/><path d="M4001.8,3891.48l23.623,15.991l-39.745,58.718l-23.623,-15.991l39.745,-58.718Z" style="fill:#9a1a31;"/><path d="M4301.6,3950.2l-23.624,15.991l-39.745,-58.718l23.624,-15.991l39.745,58.718Z" style="fill:#9a1a31;"/><path d="M4067.16,3934.75l23.623,15.991l-39.745,58.718l-23.623,-15.991l39.745,-58.718Z" style="fill:#9a1a31;"/><path d="M4236.25,3993.47l-23.624,15.991l-39.745,-58.718l23.624,-15.991l39.745,58.718Z" style="fill:#9a1a31;"/></g></svg>