<?xml version="1.0" encoding="UTF-8" standalone="no"?><!DOCTYPE svg PUBLIC "-//W3C//DTD SVG 1.1//EN" "http://www.w3.org/Graphics/SVG/1.1/DTD/svg11.dtd"><svg width="100%" height="100%" viewBox="0 0 512 512" version="1.1" xmlns="http://www.w3.org/2000/svg" xmlns:xlink="http://www.w3.org/1999/xlink" xml:space="preserve" xmlns:serif="http://www.serif.com/" style="fill-rule:evenodd;clip-rule:evenodd;stroke-linejoin:round;stroke-miterlimit:2;"><g><path d="M43.196,446.165c25.733,25.732 65.42,28.699 94.388,9.539l51.899,51.898c5.856,5.857 15.353,5.859 21.212,0l42.426,-42.425c5.854,-5.855 5.856,-15.356 -0,-21.213l-50.713,-50.712c101.194,-95.805 205.394,-102.462 237.857,-113.841c5.243,-1.311 9.375,-5.34 10.817,-10.548c1.443,-5.208 -0.028,-10.789 -3.849,-14.61l-233.337,-233.338c-3.82,-3.821 -9.4,-5.291 -14.61,-3.849c-5.207,1.443 -9.236,5.575 -10.547,10.818c-11.022,30.81 -18.35,142.6 -121.738,245.989c-7.022,7.022 -40.704,40.704 -45.018,45.017c-29.309,29.308 -29.314,76.75 0,106.063l21.213,21.212Zm156.893,29.619l-40.224,-40.224l21.212,-21.213l40.226,40.226l-21.214,21.211Zm-103.975,-188.826c43.633,-45.917 76.708,-100.362 97.024,-159.525l147.578,147.578c-59.164,20.316 -113.61,53.39 -159.526,97.024l-85.076,-85.077Zm115.302,-226.098l195.872,195.872c-20.627,5.169 -27.285,6.8 -33.919,8.506l-170.459,-170.457c1.615,-6.28 4.759,-18.97 8.506,-33.921Zm-168.22,279.243l31.819,-31.819l84.85,84.85l-31.819,31.819c-17.545,17.544 -46.093,17.545 -63.638,-0l-21.212,-21.212c-17.585,-17.585 -17.589,-46.051 -0,-63.638Z" style="fill:#840025;fill-rule:nonzero;"/><path d="M316.007,91.004c8.283,-0 14.999,-6.716 14.999,-15l0,-60.997c0,-8.284 -6.716,-15 -14.999,-15c-8.284,-0 -15,6.716 -15,15l0,60.997c0,8.285 6.716,15 15,15Z" style="fill:#840025;fill-rule:nonzero;"/><path d="M369.297,119.42c7.423,3.712 16.426,0.686 20.124,-6.708l20.692,-41.384l15.284,15.283c3.397,3.397 8.216,4.961 12.96,4.208c4.745,-0.754 8.841,-3.735 11.018,-8.018l30.999,-60.998c3.753,-7.384 0.809,-16.414 -6.576,-20.167c-7.385,-3.754 -16.415,-0.809 -20.167,6.577l-21.635,42.572l-15.385,-15.384c-3.409,-3.409 -8.25,-4.972 -13.008,-4.2c-4.759,0.772 -8.857,3.786 -11.014,8.098l-29.999,59.998c-3.706,7.408 -0.703,16.418 6.707,20.123Z" style="fill:#840025;fill-rule:nonzero;"/><path d="M447.553,126.434c-2.693,-3.251 -6.632,-5.217 -10.849,-5.414c-4.229,-0.199 -8.323,1.392 -11.308,4.377l-29.999,29.999c-5.858,5.858 -5.858,15.354 -0,21.212c5.857,5.858 15.354,5.858 21.212,0l18.352,-18.35l19.49,23.526c5.987,7.227 17.068,7.242 23.075,0.031l30.999,-37.212c5.302,-6.365 4.441,-15.822 -1.924,-21.125c-6.366,-5.303 -15.823,-4.44 -21.124,1.924l-19.442,23.339l-18.482,-22.307Z" style="fill:#840025;fill-rule:nonzero;"/></g></svg>